<svg width="100" height="32" viewBox="0 0 152 32" fill="none" xmlns="http://www.w3.org/2000/svg"><g id="Page-1"><g id="Sign-up-Desktop-HD"><g id="Group-92"><g id="Group-6"><g id="Group"><g id="Group-2"><path id="Fill-25" fill-rule="evenodd" clip-rule="evenodd" d="M11.7273 0.970744L0.284058 8.67806V23.4269L13.3738 14.6082C14.285 13.9963 15.0227 12.6016 15.0227 11.4972V2.75494C15.0227 0.543817 13.5474 -0.256963 11.7273 0.970744Z" fill="#BBA0CB"></path><path id="Combined-Shape" fill-rule="evenodd" clip-rule="evenodd" d="M0.284058 8.67822L11.2315 16.0513L13.3734 17.4945C14.2854 18.1087 15.023 19.5011 15.023 20.6078V29.3501C15.023 30.8572 14.3363 31.7087 13.3233 31.7087C12.8503 31.7087 12.3063 31.5237 11.7277 31.1343L0.284443 23.4269L0.284058 8.67822Z" fill="#7F3F97"></path><path id="Fill-31" fill-rule="evenodd" clip-rule="evenodd" d="M19.3194 0.970744L30.7634 8.67806V23.4269L17.6729 14.6082C16.7632 13.9963 16.024 12.6016 16.024 11.4972V2.75494C16.024 0.543817 17.5008 -0.256963 19.3194 0.970744Z" fill="#BBA0CB"></path></g></g></g></g></g></g></svg>